<svg xmlns="http://www.w3.org/2000/svg" xmlns:xlink="http://www.w3.org/1999/xlink" version="1.1" width="800" height="600" viewBox="0 0 800 600">
  <!-- Background -->
  <rect x="0" y="0" width="800" height="600" fill="#f8f9fa"/>
  
  <!-- Title -->
  <text x="400" y="40" font-family="Arial" font-size="24" text-anchor="middle" font-weight="bold">Kubernetes Pizza Observability Architecture</text>
  
  <!-- Kubernetes Cluster -->
  <rect x="50" y="100" width="300" height="200" rx="10" ry="10" fill="#326ce5" fill-opacity="0.2" stroke="#326ce5" stroke-width="2"/>
  <text x="200" y="125" font-family="Arial" font-size="18" text-anchor="middle" font-weight="bold">Kubernetes Cluster</text>
  
  <!-- Prometheus -->
  <rect x="80" y="150" width="100" height="60" rx="5" ry="5" fill="#e6522c" fill-opacity="0.2" stroke="#e6522c" stroke-width="2"/>
  <text x="130" y="185" font-family="Arial" font-size="14" text-anchor="middle">Prometheus</text>
  
  <!-- Grafana -->
  <rect x="220" y="150" width="100" height="60" rx="5" ry="5" fill="#f46800" fill-opacity="0.2" stroke="#f46800" stroke-width="2"/>
  <text x="270" y="185" font-family="Arial" font-size="14" text-anchor="middle">Grafana</text>
  
  <!-- AlertManager -->
  <rect x="150" y="230" width="100" height="60" rx="5" ry="5" fill="#e6522c" fill-opacity="0.2" stroke="#e6522c" stroke-width="2"/>
  <text x="200" y="265" font-family="Arial" font-size="14" text-anchor="middle">AlertManager</text>
  
  <!-- Azure Function -->
  <rect x="450" y="170" width="120" height="60" rx="5" ry="5" fill="#0078d4" fill-opacity="0.2" stroke="#0078d4" stroke-width="2"/>
  <text x="510" y="205" font-family="Arial" font-size="14" text-anchor="middle">Azure Function</text>
  
  <!-- Dominos API -->
  <rect x="650" y="170" width="100" height="60" rx="5" ry="5" fill="#e23838" fill-opacity="0.2" stroke="#e23838" stroke-width="2"/>
  <text x="700" y="205" font-family="Arial" font-size="14" text-anchor="middle">Dominos API</text>
  
  <!-- Slack -->
  <rect x="450" y="300" width="120" height="60" rx="5" ry="5" fill="#4a154b" fill-opacity="0.2" stroke="#4a154b" stroke-width="2"/>
  <text x="510" y="335" font-family="Arial" font-size="14" text-anchor="middle">Slack App</text>
  
  <!-- Pizza -->
  <rect x="650" y="300" width="100" height="60" rx="5" ry="5" fill="#e23838" fill-opacity="0.2" stroke="#e23838" stroke-width="2"/>
  <text x="700" y="335" font-family="Arial" font-size="14" text-anchor="middle">Pizza Delivery</text>
  
  <!-- Flow Arrows -->
  <!-- Prometheus to AlertManager -->
  <line x1="130" y1="210" x2="170" y2="230" stroke="#666" stroke-width="2" marker-end="url(#arrowhead)"/>
  
  <!-- Grafana to AlertManager -->
  <line x1="270" y1="210" x2="230" y2="230" stroke="#666" stroke-width="2" marker-end="url(#arrowhead)"/>
  
  <!-- AlertManager to Azure Function -->
  <line x1="250" y1="260" x2="450" y2="200" stroke="#666" stroke-width="2" marker-end="url(#arrowhead)"/>
  
  <!-- Azure Function to Dominos API -->
  <line x1="570" y1="200" x2="650" y2="200" stroke="#666" stroke-width="2" marker-end="url(#arrowhead)"/>
  
  <!-- Azure Function to Slack -->
  <line x1="510" y1="230" x2="510" y2="300" stroke="#666" stroke-width="2" marker-end="url(#arrowhead)"/>
  
  <!-- Slack to Azure Function -->
  <path d="M 530 300 C 560 280 560 250 530 230" fill="none" stroke="#666" stroke-width="2" marker-end="url(#arrowhead)"/>
  
  <!-- Dominos API to Pizza Delivery -->
  <line x1="700" y1="230" x2="700" y2="300" stroke="#666" stroke-width="2" marker-end="url(#arrowhead)"/>
  
  <!-- Flow Labels -->
  <text x="150" y="225" font-family="Arial" font-size="10" text-anchor="middle">Metrics</text>
  <text x="250" y="225" font-family="Arial" font-size="10" text-anchor="middle">Alerts</text>
  <text x="350" y="210" font-family="Arial" font-size="10" text-anchor="middle">Alert Webhook</text>
  <text x="610" y="190" font-family="Arial" font-size="10" text-anchor="middle">Order API</text>
  <text x="520" y="270" font-family="Arial" font-size="10" text-anchor="middle">Notification</text>
  <text x="580" y="260" font-family="Arial" font-size="10" text-anchor="middle">Confirmation</text>
  <text x="700" y="270" font-family="Arial" font-size="10" text-anchor="middle">Delivery</text>
  
  <!-- CPU Threshold -->
  <rect x="50" y="350" width="300" height="100" rx="5" ry="5" fill="#ffffff" stroke="#666" stroke-width="1"/>
  <text x="200" y="370" font-family="Arial" font-size="14" text-anchor="middle" font-weight="bold">CPU Threshold Trigger</text>
  <text x="200" y="395" font-family="Arial" font-size="12" text-anchor="middle">CPU Usage > 80%</text>
  <text x="200" y="415" font-family="Arial" font-size="12" text-anchor="middle">Duration > 5 minutes</text>
  <text x="200" y="435" font-family="Arial" font-size="12" text-anchor="middle">→ Order Pizza</text>
  
  <!-- Legend -->
  <rect x="50" y="480" width="700" height="80" rx="5" ry="5" fill="#ffffff" stroke="#666" stroke-width="1"/>
  <text x="400" y="500" font-family="Arial" font-size="14" text-anchor="middle" font-weight="bold">Legend</text>
  
  <!-- Legend Items -->
  <rect x="100" y="520" width="20" height="20" fill="#326ce5" fill-opacity="0.2" stroke="#326ce5" stroke-width="2"/>
  <text x="130" y="535" font-family="Arial" font-size="12" text-anchor="start">Kubernetes</text>
  
  <rect x="200" y="520" width="20" height="20" fill="#e6522c" fill-opacity="0.2" stroke="#e6522c" stroke-width="2"/>
  <text x="230" y="535" font-family="Arial" font-size="12" text-anchor="start">Prometheus Stack</text>
  
  <rect x="350" y="520" width="20" height="20" fill="#0078d4" fill-opacity="0.2" stroke="#0078d4" stroke-width="2"/>
  <text x="380" y="535" font-family="Arial" font-size="12" text-anchor="start">Azure</text>
  
  <rect x="450" y="520" width="20" height="20" fill="#4a154b" fill-opacity="0.2" stroke="#4a154b" stroke-width="2"/>
  <text x="480" y="535" font-family="Arial" font-size="12" text-anchor="start">Slack</text>
  
  <rect x="550" y="520" width="20" height="20" fill="#e23838" fill-opacity="0.2" stroke="#e23838" stroke-width="2"/>
  <text x="580" y="535" font-family="Arial" font-size="12" text-anchor="start">Dominos</text>
  
  <!-- Arrow Marker Definition -->
  <defs>
    <marker id="arrowhead" markerWidth="10" markerHeight="7" refX="9" refY="3.5" orient="auto">
      <polygon points="0 0, 10 3.5, 0 7" fill="#666"/>
    </marker>
  </defs>
</svg>