<svg xmlns="http://www.w3.org/2000/svg" width="800" height="600" viewBox="0 0 800 600">
  <!-- Background -->
  <rect width="800" height="600" fill="#f8f9fa" />
  
  <!-- Title -->
  <text x="400" y="40" font-family="Arial" font-size="24" text-anchor="middle" font-weight="bold">Kubernetes Pizza Observability - US/Canada Workflow</text>
  <line x1="200" y1="50" x2="600" y2="50" stroke="#007bff" stroke-width="2" />
  
  <!-- Components -->
  <!-- Kubernetes Cluster Box -->
  <rect x="50" y="80" width="700" height="450" rx="10" ry="10" fill="#e9ecef" stroke="#6c757d" stroke-width="2" />
  <text x="400" y="100" font-family="Arial" font-size="18" text-anchor="middle" font-weight="bold">Kubernetes Cluster</text>
  
  <!-- High CPU Workload -->
  <rect x="100" y="130" width="150" height="60" rx="5" ry="5" fill="#fff" stroke="#dc3545" stroke-width="2" />
  <text x="175" y="165" font-family="Arial" font-size="14" text-anchor="middle">High CPU Workload</text>
  
  <!-- Prometheus -->
  <rect x="100" y="230" width="150" height="60" rx="5" ry="5" fill="#fff" stroke="#fd7e14" stroke-width="2" />
  <text x="175" y="265" font-family="Arial" font-size="14" text-anchor="middle">Prometheus</text>
  
  <!-- AlertManager -->
  <rect x="100" y="330" width="150" height="60" rx="5" ry="5" fill="#fff" stroke="#fd7e14" stroke-width="2" />
  <text x="175" y="365" font-family="Arial" font-size="14" text-anchor="middle">AlertManager</text>
  
  <!-- Azure Function -->
  <rect x="320" y="230" width="150" height="60" rx="5" ry="5" fill="#fff" stroke="#0dcaf0" stroke-width="2" />
  <text x="395" y="265" font-family="Arial" font-size="14" text-anchor="middle">Azure Function</text>
  
  <!-- Pizza Controller -->
  <rect x="320" y="330" width="150" height="60" rx="5" ry="5" fill="#fff" stroke="#198754" stroke-width="2" />
  <text x="395" y="365" font-family="Arial" font-size="14" text-anchor="middle">Pizza Controller</text>
  
  <!-- Slack App -->
  <rect x="540" y="230" width="150" height="60" rx="5" ry="5" fill="#fff" stroke="#6f42c1" stroke-width="2" />
  <text x="615" y="265" font-family="Arial" font-size="14" text-anchor="middle">Slack App</text>
  
  <!-- Real Dominos API -->
  <rect x="540" y="330" width="150" height="60" rx="5" ry="5" fill="#fff" stroke="#198754" stroke-width="2" />
  <text x="615" y="355" font-family="Arial" font-size="14" text-anchor="middle">Dominos Pizza API</text>
  <text x="615" y="375" font-family="Arial" font-size="12" text-anchor="middle" fill="#198754">(US/Canada)</text>
  
  <!-- PizzaOrder CRD -->
  <rect x="320" y="430" width="150" height="60" rx="5" ry="5" fill="#fff" stroke="#198754" stroke-width="2" />
  <text x="395" y="465" font-family="Arial" font-size="14" text-anchor="middle">PizzaOrder CRD</text>
  
  <!-- Actual Pizza Delivery -->
  <rect x="540" y="430" width="150" height="60" rx="5" ry="5" fill="#fff" stroke="#198754" stroke-width="2" />
  <text x="615" y="465" font-family="Arial" font-size="14" text-anchor="middle">Real Pizza Delivery</text>
  
  <!-- Arrows -->
  <!-- High CPU to Prometheus -->
  <line x1="175" y1="190" x2="175" y2="230" stroke="#212529" stroke-width="2" marker-end="url(#arrowhead)" />
  <text x="190" y="210" font-family="Arial" font-size="12">1. Monitor CPU</text>
  
  <!-- Prometheus to AlertManager -->
  <line x1="175" y1="290" x2="175" y2="330" stroke="#212529" stroke-width="2" marker-end="url(#arrowhead)" />
  <text x="190" y="310" font-family="Arial" font-size="12">2. Trigger Alert</text>
  
  <!-- AlertManager to Azure Function -->
  <line x1="250" y1="360" x2="320" y2="260" stroke="#212529" stroke-width="2" marker-end="url(#arrowhead)" />
  <text x="270" y="320" font-family="Arial" font-size="12">3. Forward Alert</text>
  
  <!-- Azure Function to Pizza Controller -->
  <line x1="395" y1="290" x2="395" y2="330" stroke="#212529" stroke-width="2" marker-end="url(#arrowhead)" />
  <text x="410" y="310" font-family="Arial" font-size="12">4. Create Order</text>
  
  <!-- Azure Function to Slack -->
  <line x1="470" y1="260" x2="540" y2="260" stroke="#212529" stroke-width="2" marker-end="url(#arrowhead)" />
  <text x="505" y="250" font-family="Arial" font-size="12">5. Notify</text>
  
  <!-- Slack to Azure Function -->
  <line x1="540" y1="280" x2="470" y2="280" stroke="#212529" stroke-width="2" marker-end="url(#arrowhead)" />
  <text x="505" y="300" font-family="Arial" font-size="12">6. Confirm</text>
  
  <!-- Pizza Controller to Real API -->
  <line x1="470" y1="360" x2="540" y2="360" stroke="#212529" stroke-width="2" marker-end="url(#arrowhead)" />
  <text x="505" y="350" font-family="Arial" font-size="12">7. Place Order</text>
  
  <!-- Pizza Controller to CRD -->
  <line x1="395" y1="390" x2="395" y2="430" stroke="#212529" stroke-width="2" marker-end="url(#arrowhead)" />
  <text x="410" y="410" font-family="Arial" font-size="12">8. Update Status</text>
  
  <!-- Real API to Pizza Delivery -->
  <line x1="615" y1="390" x2="615" y2="430" stroke="#212529" stroke-width="2" marker-end="url(#arrowhead)" />
  <text x="630" y="410" font-family="Arial" font-size="12">9. Deliver Pizza</text>
  
  <!-- Arrowhead marker -->
  <defs>
    <marker id="arrowhead" markerWidth="10" markerHeight="7" refX="9" refY="3.5" orient="auto">
      <polygon points="0 0, 10 3.5, 0 7" fill="#212529" />
    </marker>
  </defs>
  
  <!-- Legend -->
  <rect x="100" y="510" width="600" height="60" rx="5" ry="5" fill="#fff" stroke="#6c757d" stroke-width="1" />
  
  <!-- Legend Items -->
  <!-- Kubernetes Components -->
  <rect x="120" y="525" width="15" height="15" fill="#fff" stroke="#0dcaf0" stroke-width="2" />
  <text x="145" y="535" font-family="Arial" font-size="12">Kubernetes Components</text>
  
  <!-- External Services -->
  <rect x="300" y="525" width="15" height="15" fill="#fff" stroke="#198754" stroke-width="2" />
  <text x="325" y="535" font-family="Arial" font-size="12">External Services</text>
  
  <!-- Monitoring -->
  <rect x="480" y="525" width="15" height="15" fill="#fff" stroke="#fd7e14" stroke-width="2" />
  <text x="505" y="535" font-family="Arial" font-size="12">Monitoring Components</text>
  
  <!-- Note -->
  <text x="400" y="560" font-family="Arial" font-size="12" text-anchor="middle" font-style="italic">Note: This workflow shows the actual pizza ordering process in US/Canada regions</text>
</svg>